{"title":"Modus Anomali 2012 BRRip XViD juggs","uid":8297215,"size":741540271,"categoryP":"video","categoryS":"movies","magnet":"?xt=urn:btih:e5612df7d9b450f1f7b47ef0ec72c74a057d4b53&amp;dn=Modus+Anomali+2012+BRRip+XViD+juggs&amp;tr=udp%3A%2F%2Ftracker.openbittorrent.com%3A80&amp;tr=udp%3A%2F%2Fopen.demonii.com%3A1337&amp;tr=udp%3A%2F%2Ftracker.coppersurfer.tk%3A6969&amp;tr=udp%3A%2F%2Fexodus.desync.com%3A6969","seeders":2,"leechers":1,"uploader":"juggs99","files":3,"time":1364172539,"description":"Source : VETO (Thanks)\n &lt;a href=&quot;\nhttp://www.imdb.com/title/tt2182019/&quot; rel=&quot;nofollow&quot; target=&quot;_NEW&quot;&gt;\nhttp://www.imdb.com/title/tt2182019/&lt;/a&gt;\n\n\nFormat : AVI\nFormat/Info : Audio Video Interleave\nFile size : 700 MiB\nDuration : 1h 26mn\nOverall bit rate : 1 133 Kbps\nWriting library : VirtualDub build 32842/release\n\nVideo\nID : 0\nFormat : MPEG-4 Visual\nFormat profile : Advanced Simple@L5\nFormat settings, BVOP : 2\nFormat settings, QPel : No\nFormat settings, GMC : No warppoints\nFormat settings, Matrix : Default (H.263)\nMuxing mode : Packed bitstream\nCodec ID : XVID\nCodec ID/Hint : XviD\nDuration : 1h 26mn\nBit rate : 996 Kbps\nWidth : 640 pixels\nHeight : 288 pixels\nDisplay aspect ratio : 2.222\nFrame rate : 23.976 fps\nColor space : YUV\nChroma subsampling : 4:2:0\nBit depth : 8 bits\nScan type : Progressive\nCompression mode : Lossy\nBits/(Pixel*Frame) : 0.225\nStream size : 615 MiB (88%)\nWriting library : XviD 64\n\nAudio\nID : 1\nFormat : MPEG Audio\nFormat version : Version 1\nFormat profile : Layer 3\nCodec ID : 55\nCodec ID/Hint : MP3\nDuration : 1h 26mn\nBit rate mode : Constant\nBit rate : 128 Kbps\nChannel(s) : 2 channels\nSampling rate : 44.1 KHz\nCompression mode : Lossy\nStream size : 79.0 MiB (11%)\nAlignment : Split accross interleaves\nInterleave, duration : 42 ms (1.00 video frame)\nInterleave, preload duration : 500 ms\nWriting library : LAME3.99r\nEncoding settings : -m s -V 4 -q 3 -lowpass 17 -b 128\n\nPlot\nA man must save his two children when they disappear during a holiday in the woods.\n &lt;a href=&quot;\nhttp://www.shotpix.com/images/00925247742175524477.png&quot; rel=&quot;nofollow&quot; target=&quot;_NEW&quot;&gt;\nhttp://www.shotpix.com/images/00925247742175524477.png&lt;/a&gt; &lt;a href=&quot;\nhttp://www.shotpix.com/images/21238384036328609603.png&quot; rel=&quot;nofollow&quot; target=&quot;_NEW&quot;&gt;\nhttp://www.shotpix.com/images/21238384036328609603.png&lt;/a&gt; &lt;a href=&quot;\nhttp://www.shotpix.com/images/49751003175272739841.png&quot; rel=&quot;nofollow&quot; target=&quot;_NEW&quot;&gt;\nhttp://www.shotpix.com/images/49751003175272739841.png&lt;/a&gt;","torrent":{"xt":"urn:btih:e5612df7d9b450f1f7b47ef0ec72c74a057d4b53","amp;dn":"Modus+Anomali+2012+BRRip+XViD+juggs","amp;tr":["udp%3A%2F%2Ftracker.openbittorrent.com%3A80","udp%3A%2F%2Fopen.demonii.com%3A1337","udp%3A%2F%2Ftracker.coppersurfer.tk%3A6969","udp%3A%2F%2Fexodus.desync.com%3A6969"],"infoHash":"e5612df7d9b450f1f7b47ef0ec72c74a057d4b53","infoHashBuffer":{"type":"Buffer","data":[229,97,45,247,217,180,80,241,247,180,126,240,236,114,199,74,5,125,75,83]},"announce":[],"urlList":[]}}